<svg width="65" height="32" viewBox="0 0 65 32" fill="none" xmlns="http://www.w3.org/2000/svg">
<path d="M32.8335 16C31.7335 16 30.7918 15.6083 30.0085 14.825C29.2252 14.0417 28.8335 13.1 28.8335 12C28.8335 10.9 29.2252 9.95833 30.0085 9.175C30.7918 8.39167 31.7335 8 32.8335 8C33.9335 8 34.8752 8.39167 35.6585 9.175C36.4418 9.95833 36.8335 10.9 36.8335 12C36.8335 13.1 36.4418 14.0417 35.6585 14.825C34.8752 15.6083 33.9335 16 32.8335 16ZM24.8335 24V21.2C24.8335 20.6333 24.9793 20.1125 25.271 19.6375C25.5627 19.1625 25.9502 18.8 26.4335 18.55C27.4668 18.0333 28.5168 17.6458 29.5835 17.3875C30.6502 17.1292 31.7335 17 32.8335 17C33.9335 17 35.0168 17.1292 36.0835 17.3875C37.1502 17.6458 38.2002 18.0333 39.2335 18.55C39.7168 18.8 40.1043 19.1625 40.396 19.6375C40.6877 20.1125 40.8335 20.6333 40.8335 21.2V24H24.8335ZM26.8335 22H38.8335V21.2C38.8335 21.0167 38.7877 20.85 38.696 20.7C38.6043 20.55 38.4835 20.4333 38.3335 20.35C37.4335 19.9 36.5252 19.5625 35.6085 19.3375C34.6918 19.1125 33.7668 19 32.8335 19C31.9002 19 30.9752 19.1125 30.0585 19.3375C29.1418 19.5625 28.2335 19.9 27.3335 20.35C27.1835 20.4333 27.0627 20.55 26.971 20.7C26.8793 20.85 26.8335 21.0167 26.8335 21.2V22ZM32.8335 14C33.3835 14 33.8543 13.8042 34.246 13.4125C34.6377 13.0208 34.8335 12.55 34.8335 12C34.8335 11.45 34.6377 10.9792 34.246 10.5875C33.8543 10.1958 33.3835 10 32.8335 10C32.2835 10 31.8127 10.1958 31.421 10.5875C31.0293 10.9792 30.8335 11.45 30.8335 12C30.8335 12.55 31.0293 13.0208 31.421 13.4125C31.8127 13.8042 32.2835 14 32.8335 14Z" fill="#878787"/>
</svg>
